# xmcd
#
# Track frame offsets: 
#        150
#        11363
#        22388
#        36263
#        49313
#        62588
#        76613
#        88763
#        100313
#        113213
#        124425
#        137100
#        150938
#        163463
#        177113
#        189563
#        202838
#        216525
#        231638
#        245588
#        259013
#        269588
#        282525
#
# Disc length: 3957 seconds
#
# Revision: 0
# Processed by: cddbd v1.4PL0 Copyright (c) Steve Scherf et al.
# Submitted via: ExactAudioCopy v0.90b3
#
DISCID=5b0f7317
DTITLE=Various Artist - Blues, Boogie, and Bop - The 1940s Mercury Sess
DTITLE=ions - Disc 5 of 7
DYEAR=1995
DGENRE=Blues
TTITLE0=Some Women Do - Eddie 'Cleanhead' Vinson and His Orchestra
TTITLE1=Alimony Blues - Eddie 'Cleanhead' Vinson and His Orchestra
TTITLE2=High Class Baby - Eddie 'Cleanhead' Vinson and His Orchestra
TTITLE3=I Took The Front Door In - Eddie 'Cleanhead' Vinson and His Orch
TTITLE3=estra
TTITLE4=Friday Fish Fry - Eddie 'Cleanhead' Vinson and His Orchestra
TTITLE5=Shavetail - Eddie 'Cleanhead' Vinson and His Orchestra
TTITLE6=Her Mind Is Gone - Roy Byrd and His Blues Jumpers
TTITLE7=Bald Head - Roy Byrd and His Blues Jumpers
TTITLE8=Hey Now, Baby - Roy Byrd and His Blues Jumpers
TTITLE9=Oh, Well - Roy Byrd and His Blues Jumpers
TTITLE10=Byrd's Blues - Roy Byrd and His Blues Jumpers
TTITLE11=Hadacol Bounce - Roy Byrd and His Blues Jumpers
TTITLE12=Longhair Stomp - Roy Byrd and His Blues Jumpers
TTITLE13=Been Foolin' Around - Roy Byrd and His Blues Jumpers
TTITLE14=Between The Night And Day - Roy Byrd and His Blues Jumpers
TTITLE15=If It's Good - Julia Lee with Tommy Douglas' Orchestra
TTITLE16=Show Me Missouri Blues - Julia Lee with Tommy Douglas' Orches
TTITLE16=tra
TTITLE17=Lotus Blossom - Julia Lee with Tommy Douglas' Orchestra
TTITLE18=Dream Lucky Blues - Julia Lee with Tommy Douglas' Orchestra
TTITLE19=Take It Easy, Greasy - Myra Taylor with Jimmy Keith's Orchest
TTITLE19=ra
TTITLE20=Tell Your Best Friend Nothin' - Myra Taylor with Jimmy Keith'
TTITLE20=s Orchestra
TTITLE21=The Spider And The Fly - Myra Taylor with Jimmy Keith's Orche
TTITLE21=stra
TTITLE22=Still Blue Water - Myra Taylor with Jimmy Keith's Orchestra
EXTD=
EXTT0=
EXTT1=
EXTT2=
EXTT3=
EXTT4=
EXTT5=
EXTT6=
EXTT7=
EXTT8=
EXTT9=
EXTT10=
EXTT11=
EXTT12=
EXTT13=
EXTT14=
EXTT15=
EXTT16=
EXTT17=
EXTT18=
EXTT19=
EXTT20=
EXTT21=
EXTT22=
PLAYORDER=
